<svg id="Hand-drawn_Icon_Set" data-name="Hand-drawn Icon Set" xmlns="http://www.w3.org/2000/svg" viewBox="0 0 442.04 391.67"><defs><style>.cls-1{fill:#f5f5f5;}.cls-2{fill:#ccc;}</style></defs><path class="cls-1" d="M3284.83,446.16q-16.36,11.05-43.77,11.06h-71.19a273.43,273.43,0,0,0-28.38,1.45,106.33,106.33,0,0,0-24.77,5.29q-10.83,3.84-17.32,10.58t-6.49,17.31h-25.5q0-10.58-6.49-17.31T3043.61,464a106.65,106.65,0,0,0-24.78-5.29,273.43,273.43,0,0,0-28.38-1.45h-71.18q-27.42,0-43.78-11.06t-16.35-31.27V390.84h25.49v9.62a18.92,18.92,0,0,0,4.09,12.27,29.84,29.84,0,0,0,10.83,8.18,60.33,60.33,0,0,0,15.87,4.57,120.38,120.38,0,0,0,18.76,1.44h67.34q19.71,0,33.91,4.33a101.88,101.88,0,0,1,23.57,10.1q9.38,5.77,14.19,11.3a68.35,68.35,0,0,1,6.25,7.94h1a68.35,68.35,0,0,1,6.25-7.94q4.82-5.53,14.19-11.3a101.69,101.69,0,0,1,23.57-10.1q14.19-4.33,33.91-4.33h67.82a115.74,115.74,0,0,0,18.52-1.44,64.35,64.35,0,0,0,15.88-4.57,29.49,29.49,0,0,0,11.06-8.18,18.92,18.92,0,0,0,4.09-12.27v-9.62h25.49v24.05Q3301.18,435.1,3284.83,446.16Z" transform="translate(-2859.14 -100.19)"/><path class="cls-2" d="M3284.83,371.42q-16.36,11.06-43.77,11.06h-71.19a276.24,276.24,0,0,0-28.38,1.44,106.83,106.83,0,0,0-24.77,5.3q-10.83,3.84-17.32,10.58t-6.49,17.31h-25.5q0-10.58-6.49-17.31t-17.31-10.58a107.15,107.15,0,0,0-24.78-5.3,276.24,276.24,0,0,0-28.38-1.44h-71.18q-27.42,0-43.78-11.06t-16.35-31.27v-24h25.49v9.62a18.92,18.92,0,0,0,4.09,12.27,29.84,29.84,0,0,0,10.83,8.18,60.33,60.33,0,0,0,15.87,4.57,120.38,120.38,0,0,0,18.76,1.44h67.34q19.71,0,33.91,4.33a101.88,101.88,0,0,1,23.57,10.1q9.38,5.77,14.19,11.3a68.35,68.35,0,0,1,6.25,7.94h1a68.35,68.35,0,0,1,6.25-7.94q4.82-5.54,14.19-11.3a101.69,101.69,0,0,1,23.57-10.1q14.19-4.33,33.91-4.33h67.82a115.74,115.74,0,0,0,18.52-1.44,64.35,64.35,0,0,0,15.88-4.57A29.49,29.49,0,0,0,3271.6,338a18.92,18.92,0,0,0,4.09-12.27V316.1h25.49v24Q3301.18,360.36,3284.83,371.42Z" transform="translate(-2859.14 -100.19)"/><path d="M3284.83,284.39q-16.36,11.07-43.77,11.07h-71.19a276.24,276.24,0,0,0-28.38,1.44,106.33,106.33,0,0,0-24.77,5.29q-10.83,3.84-17.32,10.58t-6.49,17.32h-25.5q0-10.59-6.49-17.32t-17.31-10.58a106.65,106.65,0,0,0-24.78-5.29,276.24,276.24,0,0,0-28.38-1.44h-71.18q-27.42,0-43.78-11.07t-16.35-31.26v-24h25.49v9.62a18.88,18.88,0,0,0,4.09,12.26,29.84,29.84,0,0,0,10.83,8.18,60,60,0,0,0,15.87,4.57,120.38,120.38,0,0,0,18.76,1.44h67.34q19.71,0,33.91,4.33a102.75,102.75,0,0,1,23.57,10.1q9.38,5.78,14.19,11.31a67.64,67.64,0,0,1,6.25,7.93h1a67.64,67.64,0,0,1,6.25-7.93q4.82-5.53,14.19-11.31a102.56,102.56,0,0,1,23.57-10.1q14.19-4.32,33.91-4.33h67.82a115.74,115.74,0,0,0,18.52-1.44,63.92,63.92,0,0,0,15.88-4.57A29.49,29.49,0,0,0,3271.6,251a18.88,18.88,0,0,0,4.09-12.26v-9.62h25.49v24Q3301.18,273.34,3284.83,284.39Z" transform="translate(-2859.14 -100.19)"/><path d="M2901,209.84h-3V102.74h3v49.8h75v-49.8h3v107.1h-3v-54.3h-75Z" transform="translate(-2859.14 -100.19)"/><path d="M3014.44,156.29a70.93,70.93,0,0,1,3.23-21.6,53.31,53.31,0,0,1,9.44-17.85,45.18,45.18,0,0,1,15.46-12.15,52.31,52.31,0,0,1,42.45,0,45.24,45.24,0,0,1,15.45,12.15,53.88,53.88,0,0,1,9.45,17.85,74.06,74.06,0,0,1,0,43.2,53.88,53.88,0,0,1-9.45,17.85A44.43,44.43,0,0,1,3085,207.81a53.06,53.06,0,0,1-42.45,0,44.38,44.38,0,0,1-15.46-12.07,53.31,53.31,0,0,1-9.44-17.85A70.93,70.93,0,0,1,3014.44,156.29Zm3,0a70.11,70.11,0,0,0,3.38,21.3,50,50,0,0,0,9.15,16.8,41.39,41.39,0,0,0,14.47,11,49,49,0,0,0,38.7,0,41.48,41.48,0,0,0,14.47-11,50.58,50.58,0,0,0,9.16-16.8,69,69,0,0,0,0-42.6,50.58,50.58,0,0,0-9.16-16.8,41.51,41.51,0,0,0-14.47-11,49.14,49.14,0,0,0-38.7,0,41.41,41.41,0,0,0-14.47,11,50,50,0,0,0-9.15,16.8A70.11,70.11,0,0,0,3017.44,156.29Z" transform="translate(-2859.14 -100.19)"/><path d="M3213.94,209.84h-65.55V102.74h3v104.1h62.55Z" transform="translate(-2859.14 -100.19)"/><path d="M3246,102.74v107.1h-3V102.74Z" transform="translate(-2859.14 -100.19)"/></svg>